<?xml version="1.0" encoding="utf-8"?>
<!-- Generator: Adobe Illustrator 21.0.2, SVG Export Plug-In . SVG Version: 6.00 Build 0)  -->
<svg version="1.1" id="Calque_1" xmlns="http://www.w3.org/2000/svg" xmlns:xlink="http://www.w3.org/1999/xlink" x="0px" y="0px"
	 viewBox="0 0 302.2 294" style="enable-background:new 0 0 302.2 294;" xml:space="preserve">
<style type="text/css">
	.st0{opacity:0.6;fill:url(#SVGID_1_);}
</style>
<linearGradient id="SVGID_1_" gradientUnits="userSpaceOnUse" x1="-3713.2007" y1="-3576.5486" x2="-4007.6262" y2="-3576.5486" gradientTransform="matrix(8.934327e-02 0.996 -0.996 8.934327e-02 -3066.1248 4309.5581)">
	<stop  offset="0" style="stop-color:#3BFFA3"/>
	<stop  offset="0" style="stop-color:#39F1AE"/>
	<stop  offset="0" style="stop-color:#36E0BC"/>
	<stop  offset="0" style="stop-color:#34D5C5"/>
	<stop  offset="0" style="stop-color:#33CECA"/>
	<stop  offset="0" style="stop-color:#33CCCC"/>
	<stop  offset="1" style="stop-color:#384064"/>
</linearGradient>
<path class="st0" d="M113.7,0.6c2.1-0.2,4.3-0.4,6.4-0.6c0.4,0,0.8,0.1,1.2,0.1c3.3,0,6.7-0.2,10-0.1c14.9,0.5,29.1,3.9,42.7,9.7
	c12.3,5.3,23.6,12.1,34.2,19.9c7.2,5.3,14.2,10.8,21.3,16.3c10.2,7.8,20.5,15.5,30.5,23.5c9,7.2,17.3,15,24.6,23.9
	c8,9.8,14.2,20.5,16.6,33c0.2,1,0.4,2.1,0.6,3.1c0.1,1.5,0.3,3,0.4,4.5c0,0.2-0.1,0.4-0.1,0.7c0.3,5.7-0.6,11.3-2.2,16.8
	c-2.9,10-8,18.9-14.1,27.3c-7.7,10.7-16.8,20.3-26.1,29.7c-10.4,10.5-21,20.9-30.6,32.1c-7.3,8.5-15,16.7-23.3,24.3
	c-16.2,14.8-34.7,25.2-57.2,28.4c-9.9,1.4-19.7,1.4-29.5-0.4c-12.4-2.4-23.6-7.2-34.3-13.4c-8.8-5.1-17.2-11-25.1-17.3
	c-9.6-7.6-19.2-15.1-28.4-23c-12.9-11.1-21.1-25-25.1-41.3c-2.1-8.5-3.3-17-4.3-25.7c-0.2-1.7-0.5-3.5-0.7-5.2
	c-0.3-3.2-0.6-6.4-0.9-9.6c0-0.3,0.1-0.5,0.1-0.8c-0.1-2.7-0.4-5.4-0.4-8.1c-0.1-6.3,0.3-12.6,1.6-18.9c2.3-11.6,7.8-21.9,15.3-31.3
	c5.9-7.3,12-14.5,18.1-21.6c5-5.7,9.5-11.7,13.8-17.9c6-8.8,11.9-17.6,18-26.3c5.4-7.6,11.6-14.6,19.2-20.3
	c7.1-5.3,14.9-8.9,23.7-10.5C111.1,1.1,112.4,0.9,113.7,0.6z"/>
</svg>
