<?xml version="1.0" encoding="utf-8"?>
<!-- Generator: Adobe Illustrator 21.0.2, SVG Export Plug-In . SVG Version: 6.00 Build 0)  -->
<svg version="1.1" id="Calque_1" xmlns="http://www.w3.org/2000/svg" xmlns:xlink="http://www.w3.org/1999/xlink" x="0px" y="0px"
	 viewBox="0 0 489.2 493.4" style="enable-background:new 0 0 489.2 493.4;" xml:space="preserve">
<style type="text/css">
	.st0{opacity:0.5;fill:url(#SVGID_1_);}
</style>
<linearGradient id="SVGID_1_" gradientUnits="userSpaceOnUse" x1="11017.6816" y1="1501.3571" x2="11273.5625" y2="1920.712" gradientTransform="matrix(-0.9806 -2.517060e-02 2.509202e-02 -0.9776 11132.0283 2187.5925)">
	<stop  offset="1.030999e-07" style="stop-color:#006E8C"/>
	<stop  offset="1" style="stop-color:#50E6C8"/>
</linearGradient>
<path class="st0" d="M488.6,216.3c-1-14.6-5.7-28-13.3-40.4c-8.2-13.4-43.4-67-57.2-78.4c-9.7-8.1-19-16.6-27.8-25.7
	c-10.9-11.3-21.8-22.6-33.2-33.4C342.8,24.5,326.3,13.8,307,7.8c-10.4-3.2-21-5.2-31.8-6.1c-4.6-0.4-9.2-0.6-13.9-0.9
	c-0.4,0-0.9-0.2-1.3-0.4c-5.5-0.1-11-0.3-16.5-0.4c-3,0.1-6,0.2-9,0.2c-14.9-0.1-29.7,0.3-44.5,2c-28.4,3.3-53.6,14-75,32.8
	C99.7,48.4,85,62.5,70.3,76.5C58,88.2,46.5,100.5,36,113.8C23.4,129.9,13,147.2,6.6,166.8c-5.1,15.5-6.9,31.4-6.5,47.7
	c1,36.9,5.1,68.9,27.2,97.9c11.4,14.9,23.8,28.9,36.8,42.4c17.2,17.7,42.7,36.8,58.6,55.6c14.2,16.8,28.7,33.3,45.4,47.9
	c13.2,11.5,27.3,21.5,43.7,28c9,3.6,18.4,6,28.1,6.7c0.4,0,0.7,0.2,1.1,0.3c2.6,0.1,5.1,0.1,7.7,0.2c1.8-0.2,3.6-0.3,5.4-0.4
	c21.7-1.5,41-9.5,59.3-20.6c16.5-10,31.5-22,45.4-35.3c15.5-14.7,30.6-29.9,45.9-44.9c10.6-10.4,21.4-20.7,31.8-31.4
	c15.3-15.8,46.7-85.5,50.5-109.5c0.8-5.3,1.2-10.8,1.8-16.2c0.1-0.6,0.3-1.3,0.4-1.9c0.1-3.5,0.2-7,0.3-10.5
	C489,220.6,488.8,218.5,488.6,216.3z"/>
</svg>
