<?xml version="1.0" encoding="utf-8"?>
<!-- Generator: Adobe Illustrator 21.0.2, SVG Export Plug-In . SVG Version: 6.00 Build 0)  -->
<svg version="1.1" id="Calque_1" xmlns="http://www.w3.org/2000/svg" xmlns:xlink="http://www.w3.org/1999/xlink" x="0px" y="0px"
	 viewBox="0 0 1000 1008.6" style="enable-background:new 0 0 1000 1008.6;" xml:space="preserve">
<style type="text/css">
	.st0{opacity:0.5;fill:url(#SVGID_1_);}
</style>
<linearGradient id="SVGID_1_" gradientUnits="userSpaceOnUse" x1="11132.5312" y1="1032.2661" x2="11655.5869" y2="1889.4841" gradientTransform="matrix(-0.9806 -2.517060e-02 2.509202e-02 -0.9776 11637.8789 2194.021)">
	<stop  offset="1.030999e-07" style="stop-color:#006E8C"/>
	<stop  offset="1" style="stop-color:#50E6C8"/>
</linearGradient>
<path class="st0" d="M998.8,442.1c-2.1-29.8-11.6-57.2-27.2-82.6c-16.8-27.4-88.8-136.9-116.9-160.2c-19.9-16.5-38.8-33.9-56.7-52.5
	c-22.3-23.1-44.6-46.1-67.8-68.3C700.7,50.2,667,28.1,627.5,15.9c-21.2-6.5-42.9-10.5-64.9-12.5c-9.4-0.9-18.9-1.2-28.4-1.8
	c-0.9-0.1-1.8-0.5-2.6-0.7C520.3,0.6,509,0.3,497.7,0c-6.1,0.1-12.3,0.4-18.4,0.3C449,0.1,418.6,1,388.4,4.5
	c-58,6.8-109.6,28.6-153.4,67c-31.3,27.4-61.3,56.2-91.4,84.9c-25,23.9-48.7,49-70,76.3C47.9,265.6,26.5,301,13.4,340.9
	C3,372.6-0.8,405.1,0.1,438.4c2.1,75.5,10.4,140.8,55.5,200.1c23.2,30.5,48.6,59.1,75.3,86.6c35.1,36.2,87.2,75.3,119.7,113.7
	c29.1,34.4,58.8,68.2,92.8,97.8c26.9,23.5,55.8,43.9,89.3,57.2c18.5,7.4,37.5,12.3,57.4,13.6c0.8,0.1,1.5,0.5,2.2,0.7
	c5.2,0.1,10.4,0.3,15.7,0.4c3.6-0.3,7.3-0.7,10.9-0.9c44.3-3,83.9-19.3,121.2-42.1c33.7-20.5,64.3-45,92.8-72.1
	c31.7-30.1,62.6-61.1,93.8-91.8c21.7-21.3,43.7-42.3,65-64.2c31.3-32.2,95.5-174.7,103.2-223.9c1.7-10.9,2.5-22,3.7-33
	c0.1-1.3,0.5-2.6,0.8-3.9c0.2-7.1,0.4-14.2,0.5-21.4C999.6,451,999.2,446.6,998.8,442.1z"/>
</svg>
