<?xml version="1.0" encoding="utf-8"?>
<!-- Generator: Adobe Illustrator 21.0.2, SVG Export Plug-In . SVG Version: 6.00 Build 0)  -->
<svg version="1.1" id="Calque_1" xmlns="http://www.w3.org/2000/svg" xmlns:xlink="http://www.w3.org/1999/xlink" x="0px" y="0px"
	 viewBox="0 0 1000 972.8" style="enable-background:new 0 0 1000 972.8;" xml:space="preserve">
<style type="text/css">
	.st0{opacity:0.6;fill:url(#SVGID_1_);}
</style>
<linearGradient id="SVGID_1_" gradientUnits="userSpaceOnUse" x1="-2690.7451" y1="-3546.9084" x2="-3665.0474" y2="-3546.9084" gradientTransform="matrix(8.934327e-02 0.996 -0.996 8.934327e-02 -2748.3926 3962.0491)">
	<stop  offset="0" style="stop-color:#3BFFA3"/>
	<stop  offset="0" style="stop-color:#39F1AE"/>
	<stop  offset="0" style="stop-color:#36E0BC"/>
	<stop  offset="0" style="stop-color:#34D5C5"/>
	<stop  offset="0" style="stop-color:#33CECA"/>
	<stop  offset="0" style="stop-color:#33CCCC"/>
	<stop  offset="1" style="stop-color:#384064"/>
</linearGradient>
<path class="st0" d="M376.3,2c7.1-0.6,14.1-1.3,21.2-1.9c1.3,0.1,2.6,0.3,3.9,0.3c11-0.1,22-0.6,33-0.3c49.4,1.7,96.3,12.8,141.2,32
	c40.7,17.4,78.1,40,113.3,65.8c23.9,17.5,47,35.8,70.5,53.8c33.7,25.9,67.7,51.4,100.9,77.7c29.8,23.7,57.4,49.7,81.3,79
	c26.6,32.5,47,67.9,54.9,109.1c0.6,3.4,1.4,6.8,2.1,10.2c0.4,4.9,0.9,9.8,1.3,14.8c-0.2,0.7-0.5,1.5-0.5,2.2
	c0.8,18.9-1.9,37.3-7.2,55.5c-9.5,32.9-26.5,62.4-46.7,90.4c-25.5,35.3-55.7,67-86.4,98.2C825,723.7,789.8,757.9,757.9,795
	c-24.2,28.1-49.7,55.2-77.2,80.5c-53.6,49.1-114.9,83.5-189.2,94c-32.8,4.6-65.3,4.7-97.8-1.4c-40.9-7.8-78.1-23.9-113.5-44.3
	c-29.3-17-56.8-36.4-83.1-57.2c-31.6-25-63.4-49.9-93.8-76.2c-42.7-36.8-69.9-82.8-83-136.5c-6.8-28-11-56.4-14.1-84.9
	c-0.6-5.8-1.6-11.5-2.3-17.2c-1-10.6-1.9-21.2-2.9-31.9c0.2-0.9,0.5-1.7,0.4-2.6c-0.4-8.9-1.2-17.9-1.4-26.8
	c-0.4-20.9,1.1-41.8,5.3-62.4c7.7-38.5,25.8-72.6,50.5-103.6c19.4-24.3,39.7-47.9,60-71.4c16.4-18.9,31.6-38.7,45.6-59.2
	c19.9-29,39.3-58.4,59.7-87.1c17.8-25.1,38.3-48.2,63.6-67.1C308,22,334.1,10,363.3,4.6C367.6,3.8,372,2.9,376.3,2z"/>
</svg>
